<?xml version="1.0" encoding="UTF-8" standalone="no"?>
<svg
   xmlns:dc="http://purl.org/dc/elements/1.1/"
   xmlns:cc="http://creativecommons.org/ns#"
   xmlns:rdf="http://www.w3.org/1999/02/22-rdf-syntax-ns#"
   xmlns:svg="http://www.w3.org/2000/svg"
   xmlns="http://www.w3.org/2000/svg"
   xml:space="preserve"
   width="512"
   viewBox="0 0 512 406.832"
   version="1.1"
   id="Layer_1"
   height="406.832"
   enable-background="new 0 0 512 512"><metadata
     id="metadata869"><rdf:RDF><cc:Work
         rdf:about=""><dc:format>image/svg+xml</dc:format><dc:type
           rdf:resource="http://purl.org/dc/dcmitype/StillImage" /><dc:title></dc:title></cc:Work></rdf:RDF></metadata><defs
     id="defs867" /><path
     style="fill:#fff"
     id="path862"
     d="m 512,134.833 c 0,-49.167 -40,-89.146 -89.167,-89.146 -2.396,0 -4.771,0.104 -7.146,0.291 C 392.562,17.124 357.708,0 319.999,0 282.311,0 247.437,17.124 224.311,45.979 221.936,45.791 219.54,45.688 217.123,45.688 168,45.687 128,85.666 128,134.833 c 0,5.146 0.688,10.104 1.5,15.042 -0.542,0.708 -1.188,1.354 -1.708,2.083 -5.229,-0.75 -10.479,-1.125 -15.792,-1.125 -61.75,0 -112,50.249 -112,111.999 0,61.751 50.25,112 112,112 13.688,0 27.084,-2.5 39.709,-7.333 28.957,25.25 65.791,39.333 104.291,39.333 38.542,0 75.333,-14.083 104.291,-39.333 12.625,4.833 26.021,7.333 39.709,7.333 61.75,0 112,-50.249 112,-112 0,-25.688 -9.042,-49.083 -23.666,-67.999 C 502.916,178.937 512,158 512,134.833 Z M 400,342.832 c -17.125,0 -32.916,-5.499 -45.938,-14.666 -23.479,28.291 -58.438,46.666 -98.062,46.666 -39.625,0 -74.584,-18.375 -98.062,-46.666 -13,9.167 -28.812,14.666 -45.938,14.666 -44.188,0 -80,-35.812 -80,-80 0,-44.188 35.812,-79.999 80,-79.999 10.812,0 21.062,2.188 30.438,6.062 0.562,-1.062 1.25,-2 1.812,-3.021 5.625,-10.271 12.562,-19.688 20.666,-28.042 23.084,-23.916 55.167,-39 91.084,-39 49.709,0 92.334,28.666 113.541,70.062 5.646,-2.312 11.668,-3.813 17.875,-4.812 L 400,182.832 c 12.334,0 23.875,3.042 34.312,8 11.312,5.416 21.021,13.374 28.646,23.188 10.5,13.521 17.042,30.354 17.042,48.812 0,44.188 -35.812,80 -80,80 z m 65.562,-170.375 c -18.479,-13.458 -41,-21.624 -65.562,-21.624 -5.312,0 -10.562,0.375 -15.792,1.125 C 354.334,111.25 307.187,86.833 256,86.833 c -34.125,0 -66.312,11.042 -92.938,30.334 7.479,-22.854 28.729,-39.479 54.062,-39.479 7.75,0 15.062,1.562 21.75,4.332 C 254.062,52.458 284.499,32 319.999,32 c 35.5,0 65.958,20.457 81.084,50.02 6.729,-2.77 14.083,-4.332 21.749,-4.332 31.584,0 57.167,25.583 57.167,57.146 10e-4,14.478 -5.561,27.54 -14.437,37.623 z" /></svg>