<?xml version="1.0" encoding="UTF-8" standalone="no"?>
<svg
   xmlns:dc="http://purl.org/dc/elements/1.1/"
   xmlns:cc="http://creativecommons.org/ns#"
   xmlns:rdf="http://www.w3.org/1999/02/22-rdf-syntax-ns#"
   xmlns:svg="http://www.w3.org/2000/svg"
   xmlns="http://www.w3.org/2000/svg"
   xml:space="preserve"
   width="249.17131"
   viewBox="0 0 249.17131 249.17439"
   version="1.1"
   id="Layer_1"
   height="249.17439"
   enable-background="new 0 0 512 512"><metadata
     id="metadata5871"><rdf:RDF><cc:Work
         rdf:about=""><dc:format>image/svg+xml</dc:format><dc:type
           rdf:resource="http://purl.org/dc/dcmitype/StillImage" /><dc:title></dc:title></cc:Work></rdf:RDF></metadata><defs
     id="defs5869" /><path
     style="fill:#fff"
     id="path5864"
     d="m 218.437,211.73739 c -49.875,49.916 -131.083,49.916 -181,0 -49.916,-49.918 -49.916,-131.124997 0,-181.020997 13.209,-13.187 29.312,-23.2499996 47.832,-29.81199961 5.834,-2.04199999 12.293,-0.562 16.625,3.79200001 4.376,4.375 5.855,10.8329996 3.793,16.6249996 -12.542,35.375 -4,73.666 22.25,99.916997 26.209,26.228 64.5,34.75 99.916,22.25 5.792,-2.062 12.271,-0.582 16.625,3.793 4.376,4.332 5.834,10.812 3.771,16.625 -6.521,18.519 -16.604,34.622 -29.812,47.831 z M 60.062,53.341393 c -37.438,37.438 -37.438,98.353997 0,135.770997 40,40.021 108.125,36.416 143,-8.168 -35.959,2.25 -71.375,-10.729 -97.75,-37.084 -26.375,-26.354 -39.333,-61.770997 -37.084,-97.728997 -2.874,2.252 -5.604,4.648 -8.166,7.21 z" /></svg>