<?xml version="1.0" encoding="UTF-8" standalone="no"?>
<svg
   xmlns:dc="http://purl.org/dc/elements/1.1/"
   xmlns:cc="http://creativecommons.org/ns#"
   xmlns:rdf="http://www.w3.org/1999/02/22-rdf-syntax-ns#"
   xmlns:svg="http://www.w3.org/2000/svg"
   xmlns="http://www.w3.org/2000/svg"
   xml:space="preserve"
   width="512"
   viewBox="0 0 512 473.19312"
   version="1.1"
   id="Layer_1"
   height="473.19312"
   enable-background="new 0 0 512 512"><metadata
     id="metadata7111"><rdf:RDF><cc:Work
         rdf:about=""><dc:format>image/svg+xml</dc:format><dc:type
           rdf:resource="http://purl.org/dc/dcmitype/StillImage" /><dc:title></dc:title></cc:Work></rdf:RDF></metadata><defs
     id="defs7109" /><path
     style="fill:#fff"
     id="path7104"
     d="m 435.063,223.35913 c 4.875,-3.625 9.812,-7.188 14.229,-11.604 13.208,-13.229 23.271,-29.333 29.792,-47.854 2.083,-5.792 0.604,-12.292 -3.772,-16.625 -4.354,-4.375 -10.812,-5.854 -16.622,-3.792 -35.396,12.5 -73.688,4 -99.896,-22.25 -26.251,-26.251002 -34.793,-64.521002 -22.251,-99.896002 2.042,-5.813 0.583,-12.271 -3.792,-16.646 -4.333,-4.33299996 -10.812,-5.834 -16.625,-3.79099996 C 297.584,7.483128 281.501,17.524128 268.292,30.733128 c -33.541,33.5 -43.979,81.000002 -32.479,123.792002 -43.25,5.521 -82.125,28.5 -108.021,63.793 -5.229,-0.75 -10.479,-1.125 -15.792,-1.125 -61.75,0 -112,50.25 -112,112.001 0,61.749 50.25,111.999 112,111.999 13.688,0 27.084,-2.5 39.709,-7.334 28.957,25.25 65.791,39.334 104.291,39.334 38.542,0 75.333,-14.084 104.291,-39.334 12.625,4.834 26.021,7.334 39.709,7.334 61.75,0 112,-50.25 112,-111.999 10e-4,-49.439 -32.416,-91.022 -76.937,-105.835 z M 290.917,53.359128 c 2.542,-2.583 5.271,-4.979 8.146,-7.229 -2.25,35.979 10.729,71.375002 37.104,97.729002 26.376,26.375 61.771,39.333 97.751,37.104 -13.792,17.584 -32.792,28.521 -53.126,33.188 -27.375,-34.75 -67.604,-56.625 -111.958,-60.187 -12.271,-33.959 -5.083,-73.438002 22.083,-100.605002 z M 400.001,409.19313 c -17.125,0 -32.916,-5.5 -45.938,-14.667 -23.479,28.292 -58.438,46.667 -98.062,46.667 -39.625,0 -74.584,-18.375 -98.062,-46.667 -13,9.167 -28.812,14.667 -45.938,14.667 -44.188,0 -80,-35.812 -80,-79.999 0,-44.188 35.812,-80 80,-80 10.812,0 21.062,2.188 30.438,6.062 20.188,-39.354 59.75,-66.896 106.312,-69.542 2.438,-0.145 4.812,-0.521 7.25,-0.521 12.916,0 25.312,2.021 37,5.583 15.791,4.834 30.188,12.708 42.688,22.854 11.938,9.688 21.938,21.562 29.812,34.896 1.333,2.25 2.834,4.375 4.041,6.729 9.396,-3.875 19.668,-6.062 30.459,-6.062 44.188,0 80,35.812 80,80 0,44.188 -35.812,80 -80,80 z" /></svg>