<?xml version="1.0" encoding="UTF-8" standalone="no"?>
<svg
   xmlns:dc="http://purl.org/dc/elements/1.1/"
   xmlns:cc="http://creativecommons.org/ns#"
   xmlns:rdf="http://www.w3.org/1999/02/22-rdf-syntax-ns#"
   xmlns:svg="http://www.w3.org/2000/svg"
   xmlns="http://www.w3.org/2000/svg"
   xml:space="preserve"
   width="320"
   viewBox="0 0 320 224"
   version="1.1"
   id="Layer_1"
   height="224"
   enable-background="new 0 0 512 512"><metadata
     id="metadata7743"><rdf:RDF><cc:Work
         rdf:about=""><dc:format>image/svg+xml</dc:format><dc:type
           rdf:resource="http://purl.org/dc/dcmitype/StillImage" /><dc:title></dc:title></cc:Work></rdf:RDF></metadata><defs
     id="defs7741" /><g
     transform="translate(-96,-128)"
     id="g7736"><g
       id="g7734"><path
         style="fill:#fff"
         id="path7732"
         d="m 112,160 h 288 c 8.833,0 16,-7.167 16,-16 0,-8.833 -7.167,-16 -16,-16 H 112 c -8.833,0 -16,7.167 -16,16 0,8.833 7.167,16 16,16 z m 288,32 H 112 c -8.833,0 -16,7.167 -16,16 0,8.833 7.167,16 16,16 h 288 c 8.833,0 16,-7.167 16,-16 0,-8.833 -7.167,-16 -16,-16 z m 0,64 H 112 c -8.833,0 -16,7.167 -16,16 0,8.833 7.167,16 16,16 h 288 c 8.833,0 16,-7.167 16,-16 0,-8.833 -7.167,-16 -16,-16 z m 0,64 H 112 c -8.833,0 -16,7.167 -16,16 0,8.833 7.167,16 16,16 h 288 c 8.833,0 16,-7.167 16,-16 0,-8.833 -7.167,-16 -16,-16 z" /></g></g></svg>